<mxfile host="app.diagrams.net" modified="2021-06-23T16:22:11.383Z" agent="5.0 (Windows NT 10.0; Win64; x64) AppleWebKit/537.36 (KHTML, like Gecko) Chrome/91.0.4472.77 Safari/537.36" etag="qKJ6xWm1Mtx8Tgq66d97" version="14.8.0" type="github">
  <diagram id="FGbzCmRKmNs3wEBfM2_f" name="Page-1">
    <mxGraphModel dx="782" dy="436" grid="1" gridSize="10" guides="1" tooltips="1" connect="1" arrows="1" fold="1" page="1" pageScale="1" pageWidth="827" pageHeight="1669" math="0" shadow="0">
      <root>
        <mxCell id="0" />
        <mxCell id="1" parent="0" />
        <mxCell id="WIgaypnD6t3y2DT0CLXk-16" style="edgeStyle=orthogonalEdgeStyle;rounded=0;orthogonalLoop=1;jettySize=auto;html=1;exitX=1;exitY=0.5;exitDx=0;exitDy=0;entryX=0;entryY=0.5;entryDx=0;entryDy=0;" edge="1" parent="1" source="WIgaypnD6t3y2DT0CLXk-1" target="WIgaypnD6t3y2DT0CLXk-3">
          <mxGeometry relative="1" as="geometry" />
        </mxCell>
        <mxCell id="WIgaypnD6t3y2DT0CLXk-1" value="1" style="ellipse;whiteSpace=wrap;html=1;aspect=fixed;" vertex="1" parent="1">
          <mxGeometry x="20" y="10" width="40" height="40" as="geometry" />
        </mxCell>
        <mxCell id="WIgaypnD6t3y2DT0CLXk-19" style="edgeStyle=orthogonalEdgeStyle;rounded=0;orthogonalLoop=1;jettySize=auto;html=1;exitX=0.5;exitY=1;exitDx=0;exitDy=0;entryX=0.5;entryY=0;entryDx=0;entryDy=0;" edge="1" parent="1" source="WIgaypnD6t3y2DT0CLXk-2" target="WIgaypnD6t3y2DT0CLXk-5">
          <mxGeometry relative="1" as="geometry" />
        </mxCell>
        <mxCell id="WIgaypnD6t3y2DT0CLXk-2" value="3" style="ellipse;whiteSpace=wrap;html=1;aspect=fixed;" vertex="1" parent="1">
          <mxGeometry x="110" y="80" width="40" height="40" as="geometry" />
        </mxCell>
        <mxCell id="WIgaypnD6t3y2DT0CLXk-17" value="no" style="edgeStyle=orthogonalEdgeStyle;rounded=0;orthogonalLoop=1;jettySize=auto;html=1;exitX=1;exitY=0.5;exitDx=0;exitDy=0;entryX=0;entryY=0.5;entryDx=0;entryDy=0;" edge="1" parent="1" source="WIgaypnD6t3y2DT0CLXk-3" target="WIgaypnD6t3y2DT0CLXk-13">
          <mxGeometry relative="1" as="geometry" />
        </mxCell>
        <mxCell id="WIgaypnD6t3y2DT0CLXk-18" value="yes" style="edgeStyle=orthogonalEdgeStyle;rounded=0;orthogonalLoop=1;jettySize=auto;html=1;exitX=0.5;exitY=1;exitDx=0;exitDy=0;entryX=0.5;entryY=0;entryDx=0;entryDy=0;" edge="1" parent="1" source="WIgaypnD6t3y2DT0CLXk-3" target="WIgaypnD6t3y2DT0CLXk-2">
          <mxGeometry relative="1" as="geometry" />
        </mxCell>
        <mxCell id="WIgaypnD6t3y2DT0CLXk-3" value="C1" style="rhombus;whiteSpace=wrap;html=1;" vertex="1" parent="1">
          <mxGeometry x="110" y="10" width="40" height="40" as="geometry" />
        </mxCell>
        <mxCell id="WIgaypnD6t3y2DT0CLXk-20" value="yes" style="edgeStyle=orthogonalEdgeStyle;rounded=0;orthogonalLoop=1;jettySize=auto;html=1;exitX=0.5;exitY=1;exitDx=0;exitDy=0;" edge="1" parent="1" source="WIgaypnD6t3y2DT0CLXk-5" target="WIgaypnD6t3y2DT0CLXk-6">
          <mxGeometry relative="1" as="geometry" />
        </mxCell>
        <mxCell id="WIgaypnD6t3y2DT0CLXk-24" value="no" style="edgeStyle=none;rounded=0;orthogonalLoop=1;jettySize=auto;html=1;exitX=1;exitY=0.5;exitDx=0;exitDy=0;entryX=0;entryY=0.5;entryDx=0;entryDy=0;" edge="1" parent="1" source="WIgaypnD6t3y2DT0CLXk-5" target="WIgaypnD6t3y2DT0CLXk-7">
          <mxGeometry relative="1" as="geometry" />
        </mxCell>
        <mxCell id="WIgaypnD6t3y2DT0CLXk-5" value="C2" style="rhombus;whiteSpace=wrap;html=1;" vertex="1" parent="1">
          <mxGeometry x="110" y="150" width="40" height="40" as="geometry" />
        </mxCell>
        <mxCell id="WIgaypnD6t3y2DT0CLXk-21" style="edgeStyle=orthogonalEdgeStyle;rounded=0;orthogonalLoop=1;jettySize=auto;html=1;exitX=0.5;exitY=1;exitDx=0;exitDy=0;entryX=0.5;entryY=0;entryDx=0;entryDy=0;" edge="1" parent="1" source="WIgaypnD6t3y2DT0CLXk-6" target="WIgaypnD6t3y2DT0CLXk-9">
          <mxGeometry relative="1" as="geometry" />
        </mxCell>
        <mxCell id="WIgaypnD6t3y2DT0CLXk-6" value="5" style="ellipse;whiteSpace=wrap;html=1;aspect=fixed;" vertex="1" parent="1">
          <mxGeometry x="110" y="220" width="40" height="40" as="geometry" />
        </mxCell>
        <mxCell id="WIgaypnD6t3y2DT0CLXk-23" style="rounded=0;orthogonalLoop=1;jettySize=auto;html=1;exitX=0.5;exitY=1;exitDx=0;exitDy=0;entryX=0.5;entryY=0;entryDx=0;entryDy=0;" edge="1" parent="1" source="WIgaypnD6t3y2DT0CLXk-7" target="WIgaypnD6t3y2DT0CLXk-9">
          <mxGeometry relative="1" as="geometry" />
        </mxCell>
        <mxCell id="WIgaypnD6t3y2DT0CLXk-36" value="h" style="edgeLabel;html=1;align=center;verticalAlign=middle;resizable=0;points=[];" vertex="1" connectable="0" parent="WIgaypnD6t3y2DT0CLXk-23">
          <mxGeometry x="-0.2984" y="1" relative="1" as="geometry">
            <mxPoint as="offset" />
          </mxGeometry>
        </mxCell>
        <mxCell id="WIgaypnD6t3y2DT0CLXk-7" value="7" style="ellipse;whiteSpace=wrap;html=1;aspect=fixed;" vertex="1" parent="1">
          <mxGeometry x="190" y="150" width="40" height="40" as="geometry" />
        </mxCell>
        <mxCell id="WIgaypnD6t3y2DT0CLXk-22" value="yes" style="edgeStyle=orthogonalEdgeStyle;rounded=0;orthogonalLoop=1;jettySize=auto;html=1;exitX=0.5;exitY=1;exitDx=0;exitDy=0;entryX=0.5;entryY=0;entryDx=0;entryDy=0;" edge="1" parent="1" source="WIgaypnD6t3y2DT0CLXk-9" target="WIgaypnD6t3y2DT0CLXk-10">
          <mxGeometry relative="1" as="geometry" />
        </mxCell>
        <mxCell id="WIgaypnD6t3y2DT0CLXk-25" value="no" style="edgeStyle=none;rounded=0;orthogonalLoop=1;jettySize=auto;html=1;exitX=1;exitY=0.5;exitDx=0;exitDy=0;entryX=0;entryY=0.5;entryDx=0;entryDy=0;" edge="1" parent="1" source="WIgaypnD6t3y2DT0CLXk-9" target="WIgaypnD6t3y2DT0CLXk-12">
          <mxGeometry relative="1" as="geometry" />
        </mxCell>
        <mxCell id="WIgaypnD6t3y2DT0CLXk-9" value="C3" style="rhombus;whiteSpace=wrap;html=1;" vertex="1" parent="1">
          <mxGeometry x="110" y="290" width="40" height="40" as="geometry" />
        </mxCell>
        <mxCell id="WIgaypnD6t3y2DT0CLXk-27" style="edgeStyle=none;rounded=0;orthogonalLoop=1;jettySize=auto;html=1;exitX=1;exitY=0.5;exitDx=0;exitDy=0;entryX=0.5;entryY=1;entryDx=0;entryDy=0;" edge="1" parent="1" source="WIgaypnD6t3y2DT0CLXk-10" target="WIgaypnD6t3y2DT0CLXk-15">
          <mxGeometry relative="1" as="geometry" />
        </mxCell>
        <mxCell id="WIgaypnD6t3y2DT0CLXk-10" value="10" style="ellipse;whiteSpace=wrap;html=1;aspect=fixed;" vertex="1" parent="1">
          <mxGeometry x="180" y="380" width="40" height="40" as="geometry" />
        </mxCell>
        <mxCell id="WIgaypnD6t3y2DT0CLXk-26" style="edgeStyle=none;rounded=0;orthogonalLoop=1;jettySize=auto;html=1;exitX=1;exitY=0.5;exitDx=0;exitDy=0;entryX=0;entryY=0.5;entryDx=0;entryDy=0;" edge="1" parent="1" source="WIgaypnD6t3y2DT0CLXk-12" target="WIgaypnD6t3y2DT0CLXk-15">
          <mxGeometry relative="1" as="geometry" />
        </mxCell>
        <mxCell id="WIgaypnD6t3y2DT0CLXk-12" value="12" style="ellipse;whiteSpace=wrap;html=1;aspect=fixed;" vertex="1" parent="1">
          <mxGeometry x="190" y="290" width="40" height="40" as="geometry" />
        </mxCell>
        <mxCell id="WIgaypnD6t3y2DT0CLXk-28" style="edgeStyle=none;rounded=0;orthogonalLoop=1;jettySize=auto;html=1;exitX=1;exitY=0.5;exitDx=0;exitDy=0;" edge="1" parent="1" source="WIgaypnD6t3y2DT0CLXk-13" target="WIgaypnD6t3y2DT0CLXk-15">
          <mxGeometry relative="1" as="geometry" />
        </mxCell>
        <mxCell id="WIgaypnD6t3y2DT0CLXk-13" value="15" style="ellipse;whiteSpace=wrap;html=1;aspect=fixed;" vertex="1" parent="1">
          <mxGeometry x="190" y="10" width="40" height="40" as="geometry" />
        </mxCell>
        <mxCell id="WIgaypnD6t3y2DT0CLXk-15" value="17" style="ellipse;whiteSpace=wrap;html=1;aspect=fixed;" vertex="1" parent="1">
          <mxGeometry x="374" y="200" width="40" height="40" as="geometry" />
        </mxCell>
        <mxCell id="WIgaypnD6t3y2DT0CLXk-29" value="a" style="text;html=1;strokeColor=none;fillColor=none;align=center;verticalAlign=middle;whiteSpace=wrap;rounded=0;" vertex="1" parent="1">
          <mxGeometry x="70" y="10" width="40" height="20" as="geometry" />
        </mxCell>
        <mxCell id="WIgaypnD6t3y2DT0CLXk-30" value="c" style="text;html=1;strokeColor=none;fillColor=none;align=center;verticalAlign=middle;whiteSpace=wrap;rounded=0;" vertex="1" parent="1">
          <mxGeometry x="150" width="40" height="20" as="geometry" />
        </mxCell>
        <mxCell id="WIgaypnD6t3y2DT0CLXk-31" value="b" style="text;html=1;strokeColor=none;fillColor=none;align=center;verticalAlign=middle;whiteSpace=wrap;rounded=0;" vertex="1" parent="1">
          <mxGeometry x="80" y="50" width="40" height="20" as="geometry" />
        </mxCell>
        <mxCell id="WIgaypnD6t3y2DT0CLXk-32" value="d" style="text;html=1;strokeColor=none;fillColor=none;align=center;verticalAlign=middle;whiteSpace=wrap;rounded=0;" vertex="1" parent="1">
          <mxGeometry x="80" y="120" width="40" height="20" as="geometry" />
        </mxCell>
        <mxCell id="WIgaypnD6t3y2DT0CLXk-33" value="e" style="text;html=1;strokeColor=none;fillColor=none;align=center;verticalAlign=middle;whiteSpace=wrap;rounded=0;" vertex="1" parent="1">
          <mxGeometry x="150" y="150" width="40" height="20" as="geometry" />
        </mxCell>
        <mxCell id="WIgaypnD6t3y2DT0CLXk-34" value="f" style="text;html=1;strokeColor=none;fillColor=none;align=center;verticalAlign=middle;whiteSpace=wrap;rounded=0;" vertex="1" parent="1">
          <mxGeometry x="80" y="190" width="40" height="20" as="geometry" />
        </mxCell>
        <mxCell id="WIgaypnD6t3y2DT0CLXk-35" value="g" style="text;html=1;strokeColor=none;fillColor=none;align=center;verticalAlign=middle;whiteSpace=wrap;rounded=0;" vertex="1" parent="1">
          <mxGeometry x="80" y="260" width="40" height="20" as="geometry" />
        </mxCell>
        <mxCell id="WIgaypnD6t3y2DT0CLXk-37" value="i" style="text;html=1;strokeColor=none;fillColor=none;align=center;verticalAlign=middle;whiteSpace=wrap;rounded=0;" vertex="1" parent="1">
          <mxGeometry x="150" y="280" width="40" height="20" as="geometry" />
        </mxCell>
        <mxCell id="WIgaypnD6t3y2DT0CLXk-38" value="j" style="text;html=1;strokeColor=none;fillColor=none;align=center;verticalAlign=middle;whiteSpace=wrap;rounded=0;" vertex="1" parent="1">
          <mxGeometry x="90" y="340" width="40" height="20" as="geometry" />
        </mxCell>
        <mxCell id="WIgaypnD6t3y2DT0CLXk-39" value="l" style="text;html=1;strokeColor=none;fillColor=none;align=center;verticalAlign=middle;whiteSpace=wrap;rounded=0;" vertex="1" parent="1">
          <mxGeometry x="250" y="250" width="40" height="20" as="geometry" />
        </mxCell>
        <mxCell id="WIgaypnD6t3y2DT0CLXk-40" value="k" style="text;html=1;strokeColor=none;fillColor=none;align=center;verticalAlign=middle;whiteSpace=wrap;rounded=0;" vertex="1" parent="1">
          <mxGeometry x="310" y="340" width="40" height="20" as="geometry" />
        </mxCell>
        <mxCell id="WIgaypnD6t3y2DT0CLXk-41" value="m" style="text;html=1;strokeColor=none;fillColor=none;align=center;verticalAlign=middle;whiteSpace=wrap;rounded=0;" vertex="1" parent="1">
          <mxGeometry x="300" y="80" width="40" height="20" as="geometry" />
        </mxCell>
        <mxCell id="WIgaypnD6t3y2DT0CLXk-61" style="edgeStyle=none;rounded=0;orthogonalLoop=1;jettySize=auto;html=1;exitX=0.5;exitY=1;exitDx=0;exitDy=0;entryX=0.5;entryY=0;entryDx=0;entryDy=0;" edge="1" parent="1" source="WIgaypnD6t3y2DT0CLXk-42" target="WIgaypnD6t3y2DT0CLXk-44">
          <mxGeometry relative="1" as="geometry" />
        </mxCell>
        <mxCell id="WIgaypnD6t3y2DT0CLXk-42" value="2" style="ellipse;whiteSpace=wrap;html=1;aspect=fixed;" vertex="1" parent="1">
          <mxGeometry x="80" y="650" width="40" height="40" as="geometry" />
        </mxCell>
        <mxCell id="WIgaypnD6t3y2DT0CLXk-59" value="no" style="edgeStyle=none;rounded=0;orthogonalLoop=1;jettySize=auto;html=1;exitX=1;exitY=0.5;exitDx=0;exitDy=0;entryX=0;entryY=0.5;entryDx=0;entryDy=0;" edge="1" parent="1" source="WIgaypnD6t3y2DT0CLXk-43" target="WIgaypnD6t3y2DT0CLXk-58">
          <mxGeometry relative="1" as="geometry" />
        </mxCell>
        <mxCell id="WIgaypnD6t3y2DT0CLXk-60" value="yes" style="edgeStyle=none;rounded=0;orthogonalLoop=1;jettySize=auto;html=1;exitX=0.5;exitY=1;exitDx=0;exitDy=0;entryX=0.5;entryY=0;entryDx=0;entryDy=0;" edge="1" parent="1" source="WIgaypnD6t3y2DT0CLXk-43" target="WIgaypnD6t3y2DT0CLXk-42">
          <mxGeometry relative="1" as="geometry" />
        </mxCell>
        <mxCell id="WIgaypnD6t3y2DT0CLXk-43" value="C2" style="rhombus;whiteSpace=wrap;html=1;" vertex="1" parent="1">
          <mxGeometry x="80" y="585" width="40" height="40" as="geometry" />
        </mxCell>
        <mxCell id="WIgaypnD6t3y2DT0CLXk-62" style="edgeStyle=none;rounded=0;orthogonalLoop=1;jettySize=auto;html=1;exitX=0.5;exitY=1;exitDx=0;exitDy=0;" edge="1" parent="1" source="WIgaypnD6t3y2DT0CLXk-44" target="WIgaypnD6t3y2DT0CLXk-45">
          <mxGeometry relative="1" as="geometry" />
        </mxCell>
        <mxCell id="WIgaypnD6t3y2DT0CLXk-44" value="3" style="ellipse;whiteSpace=wrap;html=1;aspect=fixed;" vertex="1" parent="1">
          <mxGeometry x="80" y="720" width="40" height="40" as="geometry" />
        </mxCell>
        <mxCell id="WIgaypnD6t3y2DT0CLXk-63" style="edgeStyle=none;rounded=0;orthogonalLoop=1;jettySize=auto;html=1;exitX=0.5;exitY=1;exitDx=0;exitDy=0;entryX=0.5;entryY=0;entryDx=0;entryDy=0;" edge="1" parent="1" source="WIgaypnD6t3y2DT0CLXk-45" target="WIgaypnD6t3y2DT0CLXk-46">
          <mxGeometry relative="1" as="geometry" />
        </mxCell>
        <mxCell id="WIgaypnD6t3y2DT0CLXk-45" value="4" style="ellipse;whiteSpace=wrap;html=1;aspect=fixed;" vertex="1" parent="1">
          <mxGeometry x="80" y="780" width="40" height="40" as="geometry" />
        </mxCell>
        <mxCell id="WIgaypnD6t3y2DT0CLXk-64" style="edgeStyle=none;rounded=0;orthogonalLoop=1;jettySize=auto;html=1;exitX=1;exitY=0.5;exitDx=0;exitDy=0;entryX=0;entryY=0.5;entryDx=0;entryDy=0;" edge="1" parent="1" source="WIgaypnD6t3y2DT0CLXk-46" target="WIgaypnD6t3y2DT0CLXk-47">
          <mxGeometry relative="1" as="geometry" />
        </mxCell>
        <mxCell id="WIgaypnD6t3y2DT0CLXk-46" value="5" style="ellipse;whiteSpace=wrap;html=1;aspect=fixed;" vertex="1" parent="1">
          <mxGeometry x="80" y="850" width="40" height="40" as="geometry" />
        </mxCell>
        <mxCell id="WIgaypnD6t3y2DT0CLXk-65" value="yes" style="edgeStyle=none;rounded=0;orthogonalLoop=1;jettySize=auto;html=1;exitX=0.5;exitY=0;exitDx=0;exitDy=0;entryX=0.5;entryY=1;entryDx=0;entryDy=0;" edge="1" parent="1" source="WIgaypnD6t3y2DT0CLXk-47" target="WIgaypnD6t3y2DT0CLXk-51">
          <mxGeometry relative="1" as="geometry" />
        </mxCell>
        <mxCell id="WIgaypnD6t3y2DT0CLXk-66" value="no" style="edgeStyle=none;rounded=0;orthogonalLoop=1;jettySize=auto;html=1;exitX=1;exitY=0.5;exitDx=0;exitDy=0;entryX=0;entryY=0.5;entryDx=0;entryDy=0;" edge="1" parent="1" source="WIgaypnD6t3y2DT0CLXk-47" target="WIgaypnD6t3y2DT0CLXk-49">
          <mxGeometry relative="1" as="geometry" />
        </mxCell>
        <mxCell id="WIgaypnD6t3y2DT0CLXk-47" value="C3" style="rhombus;whiteSpace=wrap;html=1;" vertex="1" parent="1">
          <mxGeometry x="170" y="850" width="40" height="40" as="geometry" />
        </mxCell>
        <mxCell id="WIgaypnD6t3y2DT0CLXk-67" value="yes" style="edgeStyle=none;rounded=0;orthogonalLoop=1;jettySize=auto;html=1;exitX=0.5;exitY=0;exitDx=0;exitDy=0;entryX=0.5;entryY=1;entryDx=0;entryDy=0;" edge="1" parent="1" source="WIgaypnD6t3y2DT0CLXk-49" target="WIgaypnD6t3y2DT0CLXk-52">
          <mxGeometry relative="1" as="geometry" />
        </mxCell>
        <mxCell id="WIgaypnD6t3y2DT0CLXk-68" value="no" style="edgeStyle=none;rounded=0;orthogonalLoop=1;jettySize=auto;html=1;exitX=1;exitY=0.5;exitDx=0;exitDy=0;entryX=0;entryY=0.5;entryDx=0;entryDy=0;" edge="1" parent="1" source="WIgaypnD6t3y2DT0CLXk-49" target="WIgaypnD6t3y2DT0CLXk-50">
          <mxGeometry relative="1" as="geometry" />
        </mxCell>
        <mxCell id="WIgaypnD6t3y2DT0CLXk-49" value="C4" style="rhombus;whiteSpace=wrap;html=1;" vertex="1" parent="1">
          <mxGeometry x="260" y="850" width="40" height="40" as="geometry" />
        </mxCell>
        <mxCell id="WIgaypnD6t3y2DT0CLXk-69" value="yes" style="edgeStyle=none;rounded=0;orthogonalLoop=1;jettySize=auto;html=1;exitX=0.5;exitY=0;exitDx=0;exitDy=0;" edge="1" parent="1" source="WIgaypnD6t3y2DT0CLXk-50" target="WIgaypnD6t3y2DT0CLXk-53">
          <mxGeometry relative="1" as="geometry" />
        </mxCell>
        <mxCell id="WIgaypnD6t3y2DT0CLXk-70" value="no" style="edgeStyle=none;rounded=0;orthogonalLoop=1;jettySize=auto;html=1;exitX=1;exitY=0.5;exitDx=0;exitDy=0;entryX=0;entryY=0.5;entryDx=0;entryDy=0;" edge="1" parent="1" source="WIgaypnD6t3y2DT0CLXk-50" target="WIgaypnD6t3y2DT0CLXk-54">
          <mxGeometry relative="1" as="geometry" />
        </mxCell>
        <mxCell id="WIgaypnD6t3y2DT0CLXk-50" value="C5" style="rhombus;whiteSpace=wrap;html=1;" vertex="1" parent="1">
          <mxGeometry x="350" y="850" width="40" height="40" as="geometry" />
        </mxCell>
        <mxCell id="WIgaypnD6t3y2DT0CLXk-72" style="edgeStyle=none;rounded=0;orthogonalLoop=1;jettySize=auto;html=1;exitX=0.5;exitY=0;exitDx=0;exitDy=0;entryX=0;entryY=1;entryDx=0;entryDy=0;" edge="1" parent="1" source="WIgaypnD6t3y2DT0CLXk-51" target="WIgaypnD6t3y2DT0CLXk-56">
          <mxGeometry relative="1" as="geometry" />
        </mxCell>
        <mxCell id="WIgaypnD6t3y2DT0CLXk-51" value="7" style="ellipse;whiteSpace=wrap;html=1;aspect=fixed;" vertex="1" parent="1">
          <mxGeometry x="170" y="780" width="40" height="40" as="geometry" />
        </mxCell>
        <mxCell id="WIgaypnD6t3y2DT0CLXk-73" style="edgeStyle=none;rounded=0;orthogonalLoop=1;jettySize=auto;html=1;exitX=0.5;exitY=0;exitDx=0;exitDy=0;entryX=0.5;entryY=1;entryDx=0;entryDy=0;" edge="1" parent="1" source="WIgaypnD6t3y2DT0CLXk-52" target="WIgaypnD6t3y2DT0CLXk-56">
          <mxGeometry relative="1" as="geometry" />
        </mxCell>
        <mxCell id="WIgaypnD6t3y2DT0CLXk-52" value="9" style="ellipse;whiteSpace=wrap;html=1;aspect=fixed;" vertex="1" parent="1">
          <mxGeometry x="260" y="780" width="40" height="40" as="geometry" />
        </mxCell>
        <mxCell id="WIgaypnD6t3y2DT0CLXk-74" style="edgeStyle=none;rounded=0;orthogonalLoop=1;jettySize=auto;html=1;exitX=0.5;exitY=0;exitDx=0;exitDy=0;entryX=1;entryY=1;entryDx=0;entryDy=0;" edge="1" parent="1" source="WIgaypnD6t3y2DT0CLXk-53" target="WIgaypnD6t3y2DT0CLXk-56">
          <mxGeometry relative="1" as="geometry" />
        </mxCell>
        <mxCell id="WIgaypnD6t3y2DT0CLXk-53" value="11" style="ellipse;whiteSpace=wrap;html=1;aspect=fixed;" vertex="1" parent="1">
          <mxGeometry x="350" y="780" width="40" height="40" as="geometry" />
        </mxCell>
        <mxCell id="WIgaypnD6t3y2DT0CLXk-71" style="edgeStyle=none;rounded=0;orthogonalLoop=1;jettySize=auto;html=1;exitX=1;exitY=0.5;exitDx=0;exitDy=0;entryX=0;entryY=0.5;entryDx=0;entryDy=0;" edge="1" parent="1" source="WIgaypnD6t3y2DT0CLXk-54" target="WIgaypnD6t3y2DT0CLXk-55">
          <mxGeometry relative="1" as="geometry" />
        </mxCell>
        <mxCell id="WIgaypnD6t3y2DT0CLXk-54" value="13" style="ellipse;whiteSpace=wrap;html=1;aspect=fixed;" vertex="1" parent="1">
          <mxGeometry x="430" y="850" width="40" height="40" as="geometry" />
        </mxCell>
        <mxCell id="WIgaypnD6t3y2DT0CLXk-55" value="14" style="ellipse;whiteSpace=wrap;html=1;aspect=fixed;" vertex="1" parent="1">
          <mxGeometry x="530" y="850" width="40" height="40" as="geometry" />
        </mxCell>
        <mxCell id="WIgaypnD6t3y2DT0CLXk-75" style="edgeStyle=none;rounded=0;orthogonalLoop=1;jettySize=auto;html=1;exitX=1;exitY=0;exitDx=0;exitDy=0;entryX=0;entryY=1;entryDx=0;entryDy=0;" edge="1" parent="1" source="WIgaypnD6t3y2DT0CLXk-56" target="WIgaypnD6t3y2DT0CLXk-57">
          <mxGeometry relative="1" as="geometry" />
        </mxCell>
        <mxCell id="WIgaypnD6t3y2DT0CLXk-56" value="16" style="ellipse;whiteSpace=wrap;html=1;aspect=fixed;" vertex="1" parent="1">
          <mxGeometry x="260" y="680" width="40" height="40" as="geometry" />
        </mxCell>
        <mxCell id="WIgaypnD6t3y2DT0CLXk-57" value="17" style="ellipse;whiteSpace=wrap;html=1;aspect=fixed;" vertex="1" parent="1">
          <mxGeometry x="334" y="630" width="40" height="40" as="geometry" />
        </mxCell>
        <mxCell id="WIgaypnD6t3y2DT0CLXk-58" value="19" style="ellipse;whiteSpace=wrap;html=1;aspect=fixed;" vertex="1" parent="1">
          <mxGeometry x="170" y="585" width="40" height="40" as="geometry" />
        </mxCell>
        <mxCell id="WIgaypnD6t3y2DT0CLXk-76" value="a" style="text;html=1;strokeColor=none;fillColor=none;align=center;verticalAlign=middle;whiteSpace=wrap;rounded=0;" vertex="1" parent="1">
          <mxGeometry x="120" y="575" width="40" height="20" as="geometry" />
        </mxCell>
        <mxCell id="WIgaypnD6t3y2DT0CLXk-77" value="b" style="text;html=1;strokeColor=none;fillColor=none;align=center;verticalAlign=middle;whiteSpace=wrap;rounded=0;" vertex="1" parent="1">
          <mxGeometry x="50" y="625" width="40" height="20" as="geometry" />
        </mxCell>
        <mxCell id="WIgaypnD6t3y2DT0CLXk-78" value="c" style="text;html=1;strokeColor=none;fillColor=none;align=center;verticalAlign=middle;whiteSpace=wrap;rounded=0;" vertex="1" parent="1">
          <mxGeometry x="50" y="690" width="40" height="20" as="geometry" />
        </mxCell>
        <mxCell id="WIgaypnD6t3y2DT0CLXk-79" value="d" style="text;html=1;strokeColor=none;fillColor=none;align=center;verticalAlign=middle;whiteSpace=wrap;rounded=0;" vertex="1" parent="1">
          <mxGeometry x="40" y="760" width="40" height="20" as="geometry" />
        </mxCell>
        <mxCell id="WIgaypnD6t3y2DT0CLXk-80" value="e" style="text;html=1;strokeColor=none;fillColor=none;align=center;verticalAlign=middle;whiteSpace=wrap;rounded=0;" vertex="1" parent="1">
          <mxGeometry x="40" y="820" width="40" height="20" as="geometry" />
        </mxCell>
        <mxCell id="WIgaypnD6t3y2DT0CLXk-81" value="f" style="text;html=1;strokeColor=none;fillColor=none;align=center;verticalAlign=middle;whiteSpace=wrap;rounded=0;" vertex="1" parent="1">
          <mxGeometry x="120" y="880" width="40" height="20" as="geometry" />
        </mxCell>
        <mxCell id="WIgaypnD6t3y2DT0CLXk-82" value="g" style="text;html=1;strokeColor=none;fillColor=none;align=center;verticalAlign=middle;whiteSpace=wrap;rounded=0;" vertex="1" parent="1">
          <mxGeometry x="140" y="830" width="40" height="20" as="geometry" />
        </mxCell>
        <mxCell id="WIgaypnD6t3y2DT0CLXk-83" value="h" style="text;html=1;strokeColor=none;fillColor=none;align=center;verticalAlign=middle;whiteSpace=wrap;rounded=0;" vertex="1" parent="1">
          <mxGeometry x="220" y="890" width="40" height="20" as="geometry" />
        </mxCell>
        <mxCell id="WIgaypnD6t3y2DT0CLXk-84" value="i" style="text;html=1;strokeColor=none;fillColor=none;align=center;verticalAlign=middle;whiteSpace=wrap;rounded=0;" vertex="1" parent="1">
          <mxGeometry x="220" y="820" width="40" height="20" as="geometry" />
        </mxCell>
        <mxCell id="WIgaypnD6t3y2DT0CLXk-85" value="j" style="text;html=1;strokeColor=none;fillColor=none;align=center;verticalAlign=middle;whiteSpace=wrap;rounded=0;" vertex="1" parent="1">
          <mxGeometry x="310" y="880" width="40" height="20" as="geometry" />
        </mxCell>
        <mxCell id="WIgaypnD6t3y2DT0CLXk-86" value="k" style="text;html=1;strokeColor=none;fillColor=none;align=center;verticalAlign=middle;whiteSpace=wrap;rounded=0;" vertex="1" parent="1">
          <mxGeometry x="320" y="830" width="40" height="20" as="geometry" />
        </mxCell>
        <mxCell id="WIgaypnD6t3y2DT0CLXk-87" value="l" style="text;html=1;strokeColor=none;fillColor=none;align=center;verticalAlign=middle;whiteSpace=wrap;rounded=0;" vertex="1" parent="1">
          <mxGeometry x="390" y="880" width="40" height="20" as="geometry" />
        </mxCell>
        <mxCell id="WIgaypnD6t3y2DT0CLXk-88" value="m" style="text;html=1;strokeColor=none;fillColor=none;align=center;verticalAlign=middle;whiteSpace=wrap;rounded=0;" vertex="1" parent="1">
          <mxGeometry x="480" y="880" width="40" height="20" as="geometry" />
        </mxCell>
        <mxCell id="WIgaypnD6t3y2DT0CLXk-89" value="n" style="text;html=1;strokeColor=none;fillColor=none;align=center;verticalAlign=middle;whiteSpace=wrap;rounded=0;" vertex="1" parent="1">
          <mxGeometry x="170" y="730" width="40" height="20" as="geometry" />
        </mxCell>
        <mxCell id="WIgaypnD6t3y2DT0CLXk-90" value="o" style="text;html=1;strokeColor=none;fillColor=none;align=center;verticalAlign=middle;whiteSpace=wrap;rounded=0;" vertex="1" parent="1">
          <mxGeometry x="230" y="750" width="40" height="20" as="geometry" />
        </mxCell>
        <mxCell id="WIgaypnD6t3y2DT0CLXk-91" value="p" style="text;html=1;strokeColor=none;fillColor=none;align=center;verticalAlign=middle;whiteSpace=wrap;rounded=0;" vertex="1" parent="1">
          <mxGeometry x="310" y="760" width="40" height="20" as="geometry" />
        </mxCell>
        <mxCell id="WIgaypnD6t3y2DT0CLXk-92" value="q" style="text;html=1;strokeColor=none;fillColor=none;align=center;verticalAlign=middle;whiteSpace=wrap;rounded=0;" vertex="1" parent="1">
          <mxGeometry x="290" y="650" width="40" height="20" as="geometry" />
        </mxCell>
        <mxCell id="WIgaypnD6t3y2DT0CLXk-94" value="yes" style="edgeStyle=none;rounded=0;orthogonalLoop=1;jettySize=auto;html=1;exitX=0.5;exitY=1;exitDx=0;exitDy=0;entryX=0.5;entryY=0;entryDx=0;entryDy=0;" edge="1" parent="1" source="WIgaypnD6t3y2DT0CLXk-93" target="WIgaypnD6t3y2DT0CLXk-43">
          <mxGeometry relative="1" as="geometry" />
        </mxCell>
        <mxCell id="WIgaypnD6t3y2DT0CLXk-95" style="edgeStyle=none;rounded=0;orthogonalLoop=1;jettySize=auto;html=1;exitX=1;exitY=0.5;exitDx=0;exitDy=0;entryX=0.5;entryY=0;entryDx=0;entryDy=0;" edge="1" parent="1" source="WIgaypnD6t3y2DT0CLXk-93" target="WIgaypnD6t3y2DT0CLXk-58">
          <mxGeometry relative="1" as="geometry" />
        </mxCell>
        <mxCell id="WIgaypnD6t3y2DT0CLXk-96" value="no" style="edgeLabel;html=1;align=center;verticalAlign=middle;resizable=0;points=[];" vertex="1" connectable="0" parent="WIgaypnD6t3y2DT0CLXk-95">
          <mxGeometry x="0.329" relative="1" as="geometry">
            <mxPoint as="offset" />
          </mxGeometry>
        </mxCell>
        <mxCell id="WIgaypnD6t3y2DT0CLXk-93" value="C1" style="rhombus;whiteSpace=wrap;html=1;" vertex="1" parent="1">
          <mxGeometry x="80" y="520" width="40" height="40" as="geometry" />
        </mxCell>
        <mxCell id="WIgaypnD6t3y2DT0CLXk-97" value="r" style="text;html=1;strokeColor=none;fillColor=none;align=center;verticalAlign=middle;whiteSpace=wrap;rounded=0;" vertex="1" parent="1">
          <mxGeometry x="40" y="560" width="40" height="20" as="geometry" />
        </mxCell>
        <mxCell id="WIgaypnD6t3y2DT0CLXk-98" value="s" style="text;html=1;strokeColor=none;fillColor=none;align=center;verticalAlign=middle;whiteSpace=wrap;rounded=0;" vertex="1" parent="1">
          <mxGeometry x="150" y="530" width="40" height="20" as="geometry" />
        </mxCell>
        <mxCell id="WIgaypnD6t3y2DT0CLXk-114" style="edgeStyle=none;rounded=0;orthogonalLoop=1;jettySize=auto;html=1;exitX=1;exitY=0.5;exitDx=0;exitDy=0;entryX=0;entryY=0.5;entryDx=0;entryDy=0;" edge="1" parent="1" source="WIgaypnD6t3y2DT0CLXk-99" target="WIgaypnD6t3y2DT0CLXk-100">
          <mxGeometry relative="1" as="geometry" />
        </mxCell>
        <mxCell id="WIgaypnD6t3y2DT0CLXk-99" value="1" style="ellipse;whiteSpace=wrap;html=1;aspect=fixed;" vertex="1" parent="1">
          <mxGeometry x="30" y="1040" width="40" height="40" as="geometry" />
        </mxCell>
        <mxCell id="WIgaypnD6t3y2DT0CLXk-115" style="edgeStyle=none;rounded=0;orthogonalLoop=1;jettySize=auto;html=1;exitX=1;exitY=0.5;exitDx=0;exitDy=0;" edge="1" parent="1" source="WIgaypnD6t3y2DT0CLXk-100" target="WIgaypnD6t3y2DT0CLXk-101">
          <mxGeometry relative="1" as="geometry" />
        </mxCell>
        <mxCell id="WIgaypnD6t3y2DT0CLXk-100" value="2" style="ellipse;whiteSpace=wrap;html=1;aspect=fixed;" vertex="1" parent="1">
          <mxGeometry x="130" y="1040" width="40" height="40" as="geometry" />
        </mxCell>
        <mxCell id="WIgaypnD6t3y2DT0CLXk-116" style="edgeStyle=none;rounded=0;orthogonalLoop=1;jettySize=auto;html=1;exitX=0.5;exitY=1;exitDx=0;exitDy=0;entryX=0.5;entryY=0;entryDx=0;entryDy=0;" edge="1" parent="1" source="WIgaypnD6t3y2DT0CLXk-101" target="WIgaypnD6t3y2DT0CLXk-102">
          <mxGeometry relative="1" as="geometry" />
        </mxCell>
        <mxCell id="WIgaypnD6t3y2DT0CLXk-101" value="3" style="ellipse;whiteSpace=wrap;html=1;aspect=fixed;" vertex="1" parent="1">
          <mxGeometry x="230" y="1040" width="40" height="40" as="geometry" />
        </mxCell>
        <mxCell id="WIgaypnD6t3y2DT0CLXk-117" value="no" style="edgeStyle=none;rounded=0;orthogonalLoop=1;jettySize=auto;html=1;exitX=0.5;exitY=1;exitDx=0;exitDy=0;entryX=0.5;entryY=0;entryDx=0;entryDy=0;" edge="1" parent="1" source="WIgaypnD6t3y2DT0CLXk-102" target="WIgaypnD6t3y2DT0CLXk-103">
          <mxGeometry relative="1" as="geometry" />
        </mxCell>
        <mxCell id="WIgaypnD6t3y2DT0CLXk-119" value="yes" style="edgeStyle=none;rounded=0;orthogonalLoop=1;jettySize=auto;html=1;exitX=1;exitY=0.5;exitDx=0;exitDy=0;entryX=0;entryY=0.5;entryDx=0;entryDy=0;" edge="1" parent="1" source="WIgaypnD6t3y2DT0CLXk-102" target="WIgaypnD6t3y2DT0CLXk-104">
          <mxGeometry relative="1" as="geometry" />
        </mxCell>
        <mxCell id="WIgaypnD6t3y2DT0CLXk-102" value="C1" style="rhombus;whiteSpace=wrap;html=1;" vertex="1" parent="1">
          <mxGeometry x="230" y="1130" width="40" height="40" as="geometry" />
        </mxCell>
        <mxCell id="WIgaypnD6t3y2DT0CLXk-118" style="edgeStyle=none;rounded=0;orthogonalLoop=1;jettySize=auto;html=1;exitX=0.5;exitY=1;exitDx=0;exitDy=0;entryX=0.5;entryY=0;entryDx=0;entryDy=0;" edge="1" parent="1" source="WIgaypnD6t3y2DT0CLXk-103" target="WIgaypnD6t3y2DT0CLXk-106">
          <mxGeometry relative="1" as="geometry" />
        </mxCell>
        <mxCell id="WIgaypnD6t3y2DT0CLXk-120" value="yes" style="edgeStyle=none;rounded=0;orthogonalLoop=1;jettySize=auto;html=1;exitX=1;exitY=0.5;exitDx=0;exitDy=0;entryX=0;entryY=0.5;entryDx=0;entryDy=0;" edge="1" parent="1" source="WIgaypnD6t3y2DT0CLXk-103" target="WIgaypnD6t3y2DT0CLXk-105">
          <mxGeometry relative="1" as="geometry" />
        </mxCell>
        <mxCell id="WIgaypnD6t3y2DT0CLXk-103" value="C2" style="rhombus;whiteSpace=wrap;html=1;" vertex="1" parent="1">
          <mxGeometry x="230" y="1240" width="40" height="40" as="geometry" />
        </mxCell>
        <mxCell id="WIgaypnD6t3y2DT0CLXk-121" style="edgeStyle=none;rounded=0;orthogonalLoop=1;jettySize=auto;html=1;exitX=0.5;exitY=1;exitDx=0;exitDy=0;entryX=0.5;entryY=0;entryDx=0;entryDy=0;" edge="1" parent="1" source="WIgaypnD6t3y2DT0CLXk-104" target="WIgaypnD6t3y2DT0CLXk-103">
          <mxGeometry relative="1" as="geometry" />
        </mxCell>
        <mxCell id="WIgaypnD6t3y2DT0CLXk-104" value="6" style="ellipse;whiteSpace=wrap;html=1;aspect=fixed;" vertex="1" parent="1">
          <mxGeometry x="330" y="1130" width="40" height="40" as="geometry" />
        </mxCell>
        <mxCell id="WIgaypnD6t3y2DT0CLXk-129" style="edgeStyle=none;rounded=0;orthogonalLoop=1;jettySize=auto;html=1;exitX=1;exitY=0;exitDx=0;exitDy=0;entryX=0;entryY=0.5;entryDx=0;entryDy=0;" edge="1" parent="1" source="WIgaypnD6t3y2DT0CLXk-105" target="WIgaypnD6t3y2DT0CLXk-113">
          <mxGeometry relative="1" as="geometry" />
        </mxCell>
        <mxCell id="WIgaypnD6t3y2DT0CLXk-105" value="8" style="ellipse;whiteSpace=wrap;html=1;aspect=fixed;" vertex="1" parent="1">
          <mxGeometry x="330" y="1240" width="40" height="40" as="geometry" />
        </mxCell>
        <mxCell id="WIgaypnD6t3y2DT0CLXk-122" style="edgeStyle=none;rounded=0;orthogonalLoop=1;jettySize=auto;html=1;exitX=1;exitY=0.5;exitDx=0;exitDy=0;entryX=0;entryY=0.5;entryDx=0;entryDy=0;" edge="1" parent="1" source="WIgaypnD6t3y2DT0CLXk-106" target="WIgaypnD6t3y2DT0CLXk-107">
          <mxGeometry relative="1" as="geometry" />
        </mxCell>
        <mxCell id="WIgaypnD6t3y2DT0CLXk-106" value="10" style="ellipse;whiteSpace=wrap;html=1;aspect=fixed;" vertex="1" parent="1">
          <mxGeometry x="230" y="1310" width="40" height="40" as="geometry" />
        </mxCell>
        <mxCell id="WIgaypnD6t3y2DT0CLXk-147" style="edgeStyle=none;rounded=0;orthogonalLoop=1;jettySize=auto;html=1;exitX=1;exitY=0.5;exitDx=0;exitDy=0;entryX=0;entryY=0.5;entryDx=0;entryDy=0;" edge="1" parent="1" source="WIgaypnD6t3y2DT0CLXk-107" target="WIgaypnD6t3y2DT0CLXk-148">
          <mxGeometry relative="1" as="geometry">
            <mxPoint x="440" y="1360" as="targetPoint" />
          </mxGeometry>
        </mxCell>
        <mxCell id="WIgaypnD6t3y2DT0CLXk-107" value="11" style="ellipse;whiteSpace=wrap;html=1;aspect=fixed;" vertex="1" parent="1">
          <mxGeometry x="320" y="1310" width="40" height="40" as="geometry" />
        </mxCell>
        <mxCell id="WIgaypnD6t3y2DT0CLXk-113" value="17" style="ellipse;whiteSpace=wrap;html=1;aspect=fixed;" vertex="1" parent="1">
          <mxGeometry x="440" y="1190" width="40" height="40" as="geometry" />
        </mxCell>
        <mxCell id="WIgaypnD6t3y2DT0CLXk-131" value="a" style="text;html=1;strokeColor=none;fillColor=none;align=center;verticalAlign=middle;whiteSpace=wrap;rounded=0;" vertex="1" parent="1">
          <mxGeometry x="80" y="1040" width="40" height="20" as="geometry" />
        </mxCell>
        <mxCell id="WIgaypnD6t3y2DT0CLXk-132" value="b" style="text;html=1;strokeColor=none;fillColor=none;align=center;verticalAlign=middle;whiteSpace=wrap;rounded=0;" vertex="1" parent="1">
          <mxGeometry x="180" y="1040" width="40" height="20" as="geometry" />
        </mxCell>
        <mxCell id="WIgaypnD6t3y2DT0CLXk-133" value="c" style="text;html=1;strokeColor=none;fillColor=none;align=center;verticalAlign=middle;whiteSpace=wrap;rounded=0;" vertex="1" parent="1">
          <mxGeometry x="260" y="1090" width="40" height="20" as="geometry" />
        </mxCell>
        <mxCell id="WIgaypnD6t3y2DT0CLXk-134" value="d" style="text;html=1;strokeColor=none;fillColor=none;align=center;verticalAlign=middle;whiteSpace=wrap;rounded=0;" vertex="1" parent="1">
          <mxGeometry x="290" y="1130" width="40" height="20" as="geometry" />
        </mxCell>
        <mxCell id="WIgaypnD6t3y2DT0CLXk-135" value="e" style="text;html=1;strokeColor=none;fillColor=none;align=center;verticalAlign=middle;whiteSpace=wrap;rounded=0;" vertex="1" parent="1">
          <mxGeometry x="200" y="1170" width="40" height="20" as="geometry" />
        </mxCell>
        <mxCell id="WIgaypnD6t3y2DT0CLXk-136" value="f" style="text;html=1;strokeColor=none;fillColor=none;align=center;verticalAlign=middle;whiteSpace=wrap;rounded=0;" vertex="1" parent="1">
          <mxGeometry x="290" y="1180" width="40" height="20" as="geometry" />
        </mxCell>
        <mxCell id="WIgaypnD6t3y2DT0CLXk-137" value="l" style="text;html=1;strokeColor=none;fillColor=none;align=center;verticalAlign=middle;whiteSpace=wrap;rounded=0;" vertex="1" parent="1">
          <mxGeometry x="290" y="1230" width="40" height="20" as="geometry" />
        </mxCell>
        <mxCell id="WIgaypnD6t3y2DT0CLXk-138" value="h" style="text;html=1;strokeColor=none;fillColor=none;align=center;verticalAlign=middle;whiteSpace=wrap;rounded=0;" vertex="1" parent="1">
          <mxGeometry x="200" y="1280" width="40" height="20" as="geometry" />
        </mxCell>
        <mxCell id="WIgaypnD6t3y2DT0CLXk-139" value="i" style="text;html=1;strokeColor=none;fillColor=none;align=center;verticalAlign=middle;whiteSpace=wrap;rounded=0;" vertex="1" parent="1">
          <mxGeometry x="280" y="1290" width="40" height="20" as="geometry" />
        </mxCell>
        <mxCell id="WIgaypnD6t3y2DT0CLXk-140" value="j" style="text;html=1;strokeColor=none;fillColor=none;align=center;verticalAlign=middle;whiteSpace=wrap;rounded=0;" vertex="1" parent="1">
          <mxGeometry x="354" y="1300" width="40" height="20" as="geometry" />
        </mxCell>
        <mxCell id="WIgaypnD6t3y2DT0CLXk-146" value="m" style="text;html=1;strokeColor=none;fillColor=none;align=center;verticalAlign=middle;whiteSpace=wrap;rounded=0;" vertex="1" parent="1">
          <mxGeometry x="374" y="1210" width="40" height="20" as="geometry" />
        </mxCell>
        <mxCell id="WIgaypnD6t3y2DT0CLXk-149" style="edgeStyle=none;rounded=0;orthogonalLoop=1;jettySize=auto;html=1;exitX=0.5;exitY=0;exitDx=0;exitDy=0;entryX=0.75;entryY=1.033;entryDx=0;entryDy=0;entryPerimeter=0;" edge="1" parent="1" source="WIgaypnD6t3y2DT0CLXk-148" target="WIgaypnD6t3y2DT0CLXk-113">
          <mxGeometry relative="1" as="geometry" />
        </mxCell>
        <mxCell id="WIgaypnD6t3y2DT0CLXk-148" value="12" style="rounded=0;whiteSpace=wrap;html=1;" vertex="1" parent="1">
          <mxGeometry x="450" y="1310" width="70" height="40" as="geometry" />
        </mxCell>
        <mxCell id="WIgaypnD6t3y2DT0CLXk-150" value="k" style="text;html=1;strokeColor=none;fillColor=none;align=center;verticalAlign=middle;whiteSpace=wrap;rounded=0;" vertex="1" parent="1">
          <mxGeometry x="480" y="1260" width="40" height="20" as="geometry" />
        </mxCell>
      </root>
    </mxGraphModel>
  </diagram>
</mxfile>
